<svg xmlns="http://www.w3.org/2000/svg" viewBox="0 0 64 64" role="img" aria-label="At Your Service favicon">
  <defs>
    <linearGradient id="g" x1="8" y1="12" x2="56" y2="50" gradientUnits="userSpaceOnUse">
      <stop offset="0%" stop-color="#2447ff"/>
      <stop offset="55%" stop-color="#7138ff"/>
      <stop offset="100%" stop-color="#b23cff"/>
    </linearGradient>
    <linearGradient id="c" x1="28" y1="37" x2="45" y2="27" gradientUnits="userSpaceOnUse">
      <stop offset="0%" stop-color="#14c8ff"/>
      <stop offset="100%" stop-color="#19f2df"/>
    </linearGradient>
    <filter id="glow" x="-45%" y="-45%" width="190%" height="190%">
      <feGaussianBlur stdDeviation="4" result="blur"/>
      <feColorMatrix in="blur" type="matrix" values="0 0 0 0 .45 0 0 0 0 .15 0 0 0 0 1 0 0 0 .9 0"/>
      <feMerge>
        <feMergeNode/>
        <feMergeNode in="SourceGraphic"/>
      </feMerge>
    </filter>
  </defs>
  <g fill="none" stroke="url(#g)" stroke-width="5" stroke-linecap="round" stroke-linejoin="round" filter="url(#glow)">
    <path d="M11 29 28 15c2-2 6-2 8 0l17 14"/>
    <path d="M17 31v15M47 31v12M22 44V29l10-8 10 8v13"/>
    <path d="M13 47c5-7 12-9 21-5l4 2c4 2 7-2 5-5"/>
    <path d="M25 47 35 50c7 2 13 0 18-5"/>
  </g>
  <path d="M29 36 34 41 45 28" fill="none" stroke="url(#c)" stroke-width="6" stroke-linecap="round" stroke-linejoin="round"/>
</svg>
